<svg xmlns="http://www.w3.org/2000/svg"
  width="45px"
  height="45px"
  viewBox="0 0 45 45"
>
  <g transform="translate(-1339.125 -133)">
  <g transform="translate(1342.125 133)">
    <path
      d="M71.82,49.3a19.479,19.479,0,1,0-38.957.005L71.82,49.3Z"
      transform="translate(-32.863 -22.592)"
      fill="#e94589"
    />
    <path
      d="M69.335,60.57a.771.771,0,0,1-.783-.7L65.634,20.423c-.113-1.487-.664-2.1-.934-2.1h0c-.283,0-.849.645-.942,2.185L61.645,56.9c-.16,2.642-1.446,3.589-2.5,3.6-1.026,0-2.312-.895-2.516-3.47L53.79,20.263c-.117-1.476-.664-2.085-.932-2.085h0c-.283,0-.85.646-.942,2.185l-2.227,36.3c-.16,2.634-1.443,3.583-2.493,3.6-1.022.024-2.3-.876-2.517-3.421L41.254,17.642a.761.761,0,0,1,.719-.808.782.782,0,0,1,.848.684l3.423,39.193c.126,1.45.666,2.049.929,2.049h0c.284,0,.85-.649.944-2.186l2.226-36.3c.16-2.64,1.446-3.587,2.5-3.6h.015c1.03,0,2.3.907,2.5,3.471L58.2,56.911c.118,1.476.665,2.086.933,2.086h0c.283,0,.85-.646.942-2.185l2.112-36.391c.16-2.644,1.447-3.591,2.5-3.6H64.7c1.035,0,2.307.914,2.5,3.495L70.12,59.769a.762.762,0,0,1-.729.8l-.056,0Z"
      transform="translate(-36.805 -16.417)"
    />
  </g>
  </g>
</svg>
